<svg fill="#000000" xmlns="http://www.w3.org/2000/svg"  viewBox="0 0 50 50" width="500px" height="500px"><path fill="none" stroke="#000000" stroke-miterlimit="10" stroke-width="2" d="M25 3A22 22 0 1 0 25 47A22 22 0 1 0 25 3Z"/><path d="M33.826,12.015L20.13,14.609C19.476,14.724,19,15.292,19,15.956v13.267c0,0.457-0.31,0.856-0.753,0.969L14.8,31.07l-0.29,0.07c-1.31,0.39-2.3,1.52-2.48,2.91c-0.043,0.324-0.04,0.648,0.01,0.973C12.313,36.786,13.98,38,15.765,38h0.101C18.701,38,21,35.701,21,32.866V22.329c0-0.676,0.485-1.254,1.15-1.371l9.676-1.884C32.439,18.966,33,19.437,33,20.059v6.164c0,0.457-0.31,0.856-0.753,0.969L28.8,28.07l-0.29,0.07c-1.31,0.39-2.3,1.52-2.48,2.91c-0.043,0.324-0.04,0.648,0.01,0.973C26.313,33.786,27.98,35,29.765,35h0.101C32.701,35,35,32.701,35,29.866V13C35,12.378,34.439,11.907,33.826,12.015z"/></svg>